<?xml version="1.0" encoding="UTF-8" standalone="no"?>
<!-- Generator: Gravit.io -->
<svg xmlns="http://www.w3.org/2000/svg" xmlns:xlink="http://www.w3.org/1999/xlink" style="isolation:isolate" viewBox="0 0 100 100" width="100pt" height="100pt"><defs><clipPath id="_clipPath_80OTQdXZCX8DTJGxTcwJMer1jMJqLjsY"><rect width="100" height="100"/></clipPath></defs><g clip-path="url(#_clipPath_80OTQdXZCX8DTJGxTcwJMer1jMJqLjsY)"><rect x="0" y="0" width="25" height="25" transform="matrix(1,0,0,1,0,0)" fill="rgb(232,232,232)"/><rect x="25" y="0" width="25" height="25" transform="matrix(1,0,0,1,0,0)" fill="rgb(209,209,209)"/><rect x="50" y="0" width="25" height="25" transform="matrix(1,0,0,1,0,0)" fill="rgb(209,209,209)"/><rect x="75" y="0" width="25" height="25" transform="matrix(1,0,0,1,0,0)" fill="rgb(185,185,185)"/><rect x="0" y="25" width="25" height="25" transform="matrix(1,0,0,1,0,0)" fill="rgb(162,162,162)"/><rect x="25" y="25" width="25" height="25" transform="matrix(1,0,0,1,0,0)" fill="rgb(139,139,139)"/><rect x="50" y="25" width="25" height="25" transform="matrix(1,0,0,1,0,0)" fill="rgb(116,116,116)"/><rect x="75" y="25" width="25" height="25" transform="matrix(1,0,0,1,0,0)" fill="rgb(93,93,93)"/><rect x="0" y="50" width="25" height="25" transform="matrix(1,0,0,1,0,0)" fill="rgb(98,96,96)"/><rect x="25" y="50" width="25" height="25" transform="matrix(1,0,0,1,0,0)" fill="rgb(64,63,63)"/><rect x="50" y="50" width="25" height="25" transform="matrix(1,0,0,1,0,0)" fill="rgb(42,42,42)"/><rect x="75" y="50" width="25" height="25" transform="matrix(1,0,0,1,0,0)" fill="rgb(25,25,25)"/><rect x="0" y="75" width="25" height="25" transform="matrix(1,0,0,1,0,0)" fill="rgb(51,51,51)"/><rect x="25" y="75" width="25" height="25" transform="matrix(1,0,0,1,0,0)" fill="rgb(32,31,31)"/><rect x="50" y="75" width="25" height="25" transform="matrix(1,0,0,1,0,0)" fill="rgb(13,12,12)"/><rect x="75" y="75" width="25" height="25" transform="matrix(1,0,0,1,0,0)" fill="rgb(0,0,0)"/></g></svg>