<?xml version="1.0" encoding="UTF-8" standalone="no"?>
<!-- Generator: Gravit.io -->
<svg xmlns="http://www.w3.org/2000/svg" xmlns:xlink="http://www.w3.org/1999/xlink" style="isolation:isolate" viewBox="0 0 1 1" width="1" height="1"><defs><clipPath id="_clipPath_HdqFA6JAUlmcx3XnDFSlacAWYTi7YeHN"><rect width="1" height="1"/></clipPath></defs><g clip-path="url(#_clipPath_HdqFA6JAUlmcx3XnDFSlacAWYTi7YeHN)"><g><rect x="0" y="0" width="1" height="1" transform="matrix(1,0,0,1,0,0)" fill="rgb(255,255,255)" vector-effect="non-scaling-stroke" stroke-width="1.633" stroke="rgb(255,255,255)" stroke-linejoin="miter" stroke-linecap="butt" stroke-miterlimit="2"/><path d=" M 0.312 0.812 C 0.312 0.859 0.287 0.903 0.245 0.927 C 0.204 0.951 0.154 0.951 0.112 0.927 C 0.071 0.903 0.046 0.859 0.046 0.812 C 0.046 0.764 0.071 0.72 0.112 0.697 C 0.154 0.673 0.204 0.673 0.245 0.697 C 0.287 0.72 0.312 0.764 0.312 0.812 L 0.312 0.812 Z " fill="rgb(0,0,0)"/><path d=" M 0.936 0.188 C 0.936 0.236 0.91 0.28 0.869 0.303 C 0.828 0.327 0.777 0.327 0.736 0.303 C 0.695 0.28 0.67 0.236 0.67 0.188 C 0.67 0.141 0.695 0.097 0.736 0.073 C 0.777 0.049 0.828 0.049 0.869 0.073 C 0.91 0.097 0.936 0.141 0.936 0.188 L 0.936 0.188 Z " fill="rgb(0,0,0)"/></g></g></svg>