<?xml version="1.0" encoding="UTF-8" standalone="no"?>
<!-- Generator: Gravit.io -->
<svg xmlns="http://www.w3.org/2000/svg" xmlns:xlink="http://www.w3.org/1999/xlink" style="isolation:isolate" viewBox="0 0 1 1" width="1" height="1"><defs><clipPath id="_clipPath_geyNCnCpwzPuRUKyFFU2BjAXgcGpNLo9"><rect width="1" height="1"/></clipPath></defs><g clip-path="url(#_clipPath_geyNCnCpwzPuRUKyFFU2BjAXgcGpNLo9)"><g><rect x="0" y="0" width="1" height="1" transform="matrix(1,0,0,1,0,0)" fill="rgb(0,0,0)" vector-effect="non-scaling-stroke" stroke-width="0.09" stroke="rgb(0,0,0)" stroke-linejoin="miter" stroke-linecap="butt" stroke-miterlimit="2"/><path d=" M 0.945 0.812 C 0.945 0.859 0.92 0.903 0.878 0.927 C 0.837 0.951 0.787 0.951 0.745 0.927 C 0.704 0.903 0.679 0.859 0.679 0.812 C 0.679 0.764 0.704 0.72 0.745 0.697 C 0.787 0.673 0.837 0.673 0.878 0.697 C 0.92 0.72 0.945 0.764 0.945 0.812 L 0.945 0.812 Z " fill="rgb(255,255,255)"/><path d=" M 0.321 0.188 C 0.321 0.236 0.296 0.28 0.255 0.303 C 0.213 0.327 0.163 0.327 0.122 0.303 C 0.08 0.28 0.055 0.236 0.055 0.188 C 0.055 0.141 0.08 0.097 0.122 0.073 C 0.163 0.049 0.213 0.049 0.255 0.073 C 0.296 0.097 0.321 0.141 0.321 0.188 L 0.321 0.188 Z " fill="rgb(255,255,255)"/><path d=" M 0.633 0.5 C 0.633 0.548 0.608 0.591 0.567 0.615 C 0.525 0.639 0.475 0.639 0.433 0.615 C 0.392 0.591 0.367 0.548 0.367 0.5 C 0.367 0.452 0.392 0.409 0.433 0.385 C 0.475 0.361 0.525 0.361 0.567 0.385 C 0.608 0.409 0.633 0.452 0.633 0.5 L 0.633 0.5 Z " fill="rgb(255,255,255)"/></g></g></svg>