<?xml version="1.0" encoding="UTF-8" standalone="no"?>
<!-- Generator: Gravit.io -->
<svg xmlns="http://www.w3.org/2000/svg" xmlns:xlink="http://www.w3.org/1999/xlink" style="isolation:isolate" viewBox="0 0 1 1" width="1" height="1"><defs><clipPath id="_clipPath_5k7dRV7bhNyz9mxFBH7qGlbwUPH4DgOR"><rect width="1" height="1"/></clipPath></defs><g clip-path="url(#_clipPath_5k7dRV7bhNyz9mxFBH7qGlbwUPH4DgOR)"><g><rect x="0" y="0" width="1" height="1" transform="matrix(1,0,0,1,0,0)" fill="rgb(0,0,0)" vector-effect="non-scaling-stroke" stroke-width="0.09" stroke="rgb(0,0,0)" stroke-linejoin="miter" stroke-linecap="butt" stroke-miterlimit="2"/><path d=" M 0.945 0.812 C 0.945 0.859 0.92 0.903 0.878 0.927 C 0.837 0.951 0.787 0.951 0.745 0.927 C 0.704 0.903 0.679 0.859 0.679 0.812 C 0.679 0.764 0.704 0.72 0.745 0.697 C 0.787 0.673 0.837 0.673 0.878 0.697 C 0.92 0.72 0.945 0.764 0.945 0.812 L 0.945 0.812 Z " fill="rgb(255,255,255)"/><path d=" M 0.321 0.812 C 0.321 0.859 0.296 0.903 0.255 0.927 C 0.213 0.951 0.163 0.951 0.122 0.927 C 0.08 0.903 0.055 0.859 0.055 0.812 C 0.055 0.764 0.08 0.72 0.122 0.697 C 0.163 0.673 0.213 0.673 0.255 0.697 C 0.296 0.72 0.321 0.764 0.321 0.812 L 0.321 0.812 Z " fill="rgb(255,255,255)"/><path d=" M 0.945 0.188 C 0.945 0.236 0.92 0.28 0.878 0.303 C 0.837 0.327 0.787 0.327 0.745 0.303 C 0.704 0.28 0.679 0.236 0.679 0.188 C 0.679 0.141 0.704 0.097 0.745 0.073 C 0.787 0.049 0.837 0.049 0.878 0.073 C 0.92 0.097 0.945 0.141 0.945 0.188 L 0.945 0.188 Z " fill="rgb(255,255,255)"/><path d=" M 0.321 0.188 C 0.321 0.236 0.296 0.28 0.255 0.303 C 0.213 0.327 0.163 0.327 0.122 0.303 C 0.08 0.28 0.055 0.236 0.055 0.188 C 0.055 0.141 0.08 0.097 0.122 0.073 C 0.163 0.049 0.213 0.049 0.255 0.073 C 0.296 0.097 0.321 0.141 0.321 0.188 L 0.321 0.188 Z " fill="rgb(255,255,255)"/><path d=" M 0.966 0.5 C 0.966 0.548 0.941 0.591 0.9 0.615 C 0.858 0.639 0.808 0.639 0.767 0.615 C 0.725 0.591 0.7 0.548 0.7 0.5 C 0.7 0.452 0.725 0.409 0.767 0.385 C 0.808 0.361 0.858 0.361 0.9 0.385 C 0.941 0.409 0.966 0.452 0.966 0.5 L 0.966 0.5 Z " fill="rgb(255,255,255)"/><path d=" M 0.321 0.5 C 0.321 0.548 0.296 0.591 0.255 0.615 C 0.213 0.639 0.163 0.639 0.122 0.615 C 0.08 0.591 0.055 0.548 0.055 0.5 C 0.055 0.452 0.08 0.409 0.122 0.385 C 0.163 0.361 0.213 0.361 0.255 0.385 C 0.296 0.409 0.321 0.452 0.321 0.5 L 0.321 0.5 Z " fill="rgb(255,255,255)"/></g></g></svg>