<?xml version="1.0" encoding="UTF-8" standalone="no"?>
<!-- Generator: Gravit.io -->
<svg xmlns="http://www.w3.org/2000/svg" xmlns:xlink="http://www.w3.org/1999/xlink" style="isolation:isolate" viewBox="0 0 1 1" width="1" height="1"><defs><clipPath id="_clipPath_JqQedTqZK1kh4rZNsZm4FQ2bCevbFrbQ"><rect width="1" height="1"/></clipPath></defs><g clip-path="url(#_clipPath_JqQedTqZK1kh4rZNsZm4FQ2bCevbFrbQ)"><g><rect x="0" y="0" width="1" height="1" transform="matrix(1,0,0,1,0,0)" fill="rgb(255,255,255)" vector-effect="non-scaling-stroke" stroke-width="0.1" stroke="rgb(0,0,0)" stroke-linejoin="miter" stroke-linecap="butt" stroke-miterlimit="2"/><path d=" M 0.312 0.177 C 0.312 0.224 0.287 0.268 0.245 0.292 C 0.204 0.316 0.154 0.316 0.112 0.292 C 0.071 0.268 0.046 0.224 0.046 0.177 C 0.046 0.129 0.071 0.085 0.112 0.062 C 0.154 0.038 0.204 0.038 0.245 0.062 C 0.287 0.085 0.312 0.129 0.312 0.177 L 0.312 0.177 Z " fill="rgb(0,0,0)"/><path d=" M 0.936 0.801 C 0.936 0.848 0.91 0.892 0.869 0.916 C 0.828 0.94 0.777 0.94 0.736 0.916 C 0.695 0.892 0.67 0.848 0.67 0.801 C 0.67 0.753 0.695 0.709 0.736 0.685 C 0.777 0.662 0.828 0.662 0.869 0.685 C 0.91 0.709 0.936 0.753 0.936 0.801 L 0.936 0.801 Z " fill="rgb(0,0,0)"/><path d=" M 0.633 0.5 C 0.633 0.548 0.608 0.591 0.567 0.615 C 0.525 0.639 0.475 0.639 0.433 0.615 C 0.392 0.591 0.367 0.548 0.367 0.5 C 0.367 0.452 0.392 0.409 0.433 0.385 C 0.475 0.361 0.525 0.361 0.567 0.385 C 0.608 0.409 0.633 0.452 0.633 0.5 L 0.633 0.5 Z " fill="rgb(0,0,0)"/></g></g></svg>