<?xml version="1.0" encoding="UTF-8" standalone="no"?>
<!-- Generator: Gravit.io -->
<svg xmlns="http://www.w3.org/2000/svg" xmlns:xlink="http://www.w3.org/1999/xlink" style="isolation:isolate" viewBox="0 0 1 1" width="1" height="1"><defs><clipPath id="_clipPath_dD4NHs7VNp2FHVxnmleVIvVoPfZHS6Yp"><rect width="1" height="1"/></clipPath></defs><g clip-path="url(#_clipPath_dD4NHs7VNp2FHVxnmleVIvVoPfZHS6Yp)"><g><rect x="0" y="0" width="1" height="1" transform="matrix(1,0,0,1,0,0)" fill="rgb(255,255,255)" vector-effect="non-scaling-stroke" stroke-width="0.1" stroke="rgb(0,0,0)" stroke-linejoin="miter" stroke-linecap="butt" stroke-miterlimit="2"/><path d=" M 0.312 0.801 C 0.312 0.848 0.287 0.892 0.245 0.916 C 0.204 0.94 0.154 0.94 0.112 0.916 C 0.071 0.892 0.046 0.848 0.046 0.801 C 0.046 0.753 0.071 0.709 0.112 0.685 C 0.154 0.662 0.204 0.662 0.245 0.685 C 0.287 0.709 0.312 0.753 0.312 0.801 L 0.312 0.801 Z " fill="rgb(0,0,0)"/><path d=" M 0.936 0.177 C 0.936 0.224 0.91 0.268 0.869 0.292 C 0.828 0.316 0.777 0.316 0.736 0.292 C 0.695 0.268 0.67 0.224 0.67 0.177 C 0.67 0.129 0.695 0.085 0.736 0.062 C 0.777 0.038 0.828 0.038 0.869 0.062 C 0.91 0.085 0.936 0.129 0.936 0.177 L 0.936 0.177 Z " fill="rgb(0,0,0)"/><path d=" M 0.312 0.177 C 0.312 0.224 0.287 0.268 0.245 0.292 C 0.204 0.316 0.154 0.316 0.112 0.292 C 0.071 0.268 0.046 0.224 0.046 0.177 C 0.046 0.129 0.071 0.085 0.112 0.062 C 0.154 0.038 0.204 0.038 0.245 0.062 C 0.287 0.085 0.312 0.129 0.312 0.177 L 0.312 0.177 Z " fill="rgb(0,0,0)"/><path d=" M 0.936 0.801 C 0.936 0.848 0.91 0.892 0.869 0.916 C 0.828 0.94 0.777 0.94 0.736 0.916 C 0.695 0.892 0.67 0.848 0.67 0.801 C 0.67 0.753 0.695 0.709 0.736 0.685 C 0.777 0.662 0.828 0.662 0.869 0.685 C 0.91 0.709 0.936 0.753 0.936 0.801 L 0.936 0.801 Z " fill="rgb(0,0,0)"/><path d=" M 0.936 0.489 C 0.936 0.536 0.91 0.58 0.869 0.604 C 0.828 0.628 0.777 0.628 0.736 0.604 C 0.695 0.58 0.67 0.536 0.67 0.489 C 0.67 0.441 0.695 0.397 0.736 0.374 C 0.777 0.35 0.828 0.35 0.869 0.374 C 0.91 0.397 0.936 0.441 0.936 0.489 L 0.936 0.489 Z " fill="rgb(0,0,0)"/><path d=" M 0.312 0.489 C 0.312 0.536 0.287 0.58 0.245 0.604 C 0.204 0.628 0.154 0.628 0.112 0.604 C 0.071 0.58 0.046 0.536 0.046 0.489 C 0.046 0.441 0.071 0.397 0.112 0.374 C 0.154 0.35 0.204 0.35 0.245 0.374 C 0.287 0.397 0.312 0.441 0.312 0.489 L 0.312 0.489 Z " fill="rgb(0,0,0)"/></g></g></svg>