<?xml version="1.0" encoding="UTF-8" standalone="no"?>
<!-- Generator: Gravit.io -->
<svg xmlns="http://www.w3.org/2000/svg" xmlns:xlink="http://www.w3.org/1999/xlink" style="isolation:isolate" viewBox="0 0 1 1" width="1" height="1"><defs><clipPath id="_clipPath_oT32HTuNTc7hcxOqGCrkG9EKlpMjrqln"><rect width="1" height="1"/></clipPath></defs><g clip-path="url(#_clipPath_oT32HTuNTc7hcxOqGCrkG9EKlpMjrqln)"><g><rect x="0" y="0" width="1" height="1" transform="matrix(1,0,0,1,0,0)" fill="rgb(255,255,255)" vector-effect="non-scaling-stroke" stroke-width="0.09" stroke="rgb(0,0,0)" stroke-linejoin="miter" stroke-linecap="butt" stroke-miterlimit="2"/><path d=" M 0.1 0.2 C 0.1 0.236 0.119 0.269 0.15 0.287 C 0.181 0.304 0.219 0.304 0.25 0.287 C 0.281 0.269 0.3 0.236 0.3 0.2 C 0.3 0.164 0.281 0.131 0.25 0.113 C 0.219 0.096 0.181 0.096 0.15 0.113 C 0.119 0.131 0.1 0.164 0.1 0.2 L 0.1 0.2 Z " fill="rgb(0,0,0)"/><path d=" M 0.7 0.8 C 0.7 0.836 0.719 0.869 0.75 0.887 C 0.781 0.904 0.819 0.904 0.85 0.887 C 0.881 0.869 0.9 0.836 0.9 0.8 C 0.9 0.764 0.881 0.731 0.85 0.713 C 0.819 0.696 0.781 0.696 0.75 0.713 C 0.719 0.731 0.7 0.764 0.7 0.8 L 0.7 0.8 Z " fill="rgb(0,0,0)"/></g></g></svg>